<svg xmlns="http://www.w3.org/2000/svg" width="68" height="68" viewBox="0 0 68 68">
  <g id="Groupe_104" data-name="Groupe 104" transform="translate(-1219 -325)">
    <circle id="Ellipse_4" data-name="Ellipse 4" cx="34" cy="34" r="34" transform="translate(1219 325)" fill="#f09990"/>
    <circle id="Ellipse_56" data-name="Ellipse 56" cx="27" cy="27" r="27" transform="translate(1226 332)" fill="#fff"/>
    <g id="accessibility" transform="translate(1238.284 340.224)">
      <path id="Tracé_175" data-name="Tracé 175" d="M21.573,25.354s.648,0,1.133,1.619l3.886,11.82a1.643,1.643,0,0,0,3.085-1.133l-3.894-11.5a17.616,17.616,0,0,1-.972-5.829V15.962a2.23,2.23,0,0,1,1.925-2.468c4.006-.473,7.86-1.24,8.106-1.287a1.619,1.619,0,1,0-.633-3.175,86.345,86.345,0,0,1-12.636,1.587A86.345,86.345,0,0,1,8.936,9.032,1.618,1.618,0,0,0,8.3,12.206c.233.047,4.1.814,8.107,1.287a2.233,2.233,0,0,1,1.925,2.469v4.372a17.616,17.616,0,0,1-.972,5.829l-3.886,11.5a1.639,1.639,0,1,0,3.076,1.133l3.886-11.822C20.925,25.354,21.573,25.354,21.573,25.354Z" transform="translate(-7 -2.282)" fill="#f09990"/>
      <ellipse id="Ellipse_60" data-name="Ellipse 60" cx="3" cy="3.5" rx="3" ry="3.5" transform="translate(11.716 -0.224)" fill="#f09990"/>
    </g>
  </g>
</svg>
